# xmcd
# Copyright (C) 1995-1998 Ti Kan
#
# Track frame offsets:
#       150
#       30113
#       60280
#       90555
#       128429
#       170812
#       199608
#       225678
#       269679
#       288869
#       321589
#
# Disc length: 4749 seconds
#
# Revision: 0
# Processed by: cddbd v1.5.2PL0 Copyright (c) Steve Scherf et al.
# Submitted via: CD-Transfer v1.0
#
DISCID=90128b0b
DTITLE=Disco Class - 
DYEAR=1900
DGENRE=
TTITLE0=Never Gonna Give It Up (Rhythm Scholar Funk Remix)
TTITLE1=Tight Honey
TTITLE2=(Are You Ready) Do The Bus Stop
TTITLE3=Pass It On
TTITLE4=Electric Avenue (Dp Version)
TTITLE5=Party
TTITLE6=Don't Go Lose It Baby
TTITLE7=Ain't Gonna Bump No More (Dp Version)
TTITLE8=Dr. Beat
TTITLE9=Do What You Wanna Do
TTITLE10=Galaxy (Dp Version)
EXTD=
EXTT0=
EXTT1=
EXTT2=
EXTT3=
EXTT4=
EXTT5=
EXTT6=
EXTT7=
EXTT8=
EXTT9=
EXTT10=
PLAYORDER=
